<?xml version="1.0" standalone="no"?><!DOCTYPE svg PUBLIC "-//W3C//DTD SVG 1.1//EN" "http://www.w3.org/Graphics/SVG/1.1/DTD/svg11.dtd"><svg t="1620162414091" class="icon" viewBox="0 0 1024 1024" version="1.1" xmlns="http://www.w3.org/2000/svg" p-id="1391" xmlns:xlink="http://www.w3.org/1999/xlink" width="200" height="200"><defs><style type="text/css"></style></defs><path d="M512 962C264.5 962 62 759.5 62 512S264.5 62 512 62s450 202.5 450 450-202.5 450-450 450z m0-836.1C299.6 125.9 125.9 299.6 125.9 512S299.6 898.1 512 898.1 898.1 724.4 898.1 512 724.4 125.9 512 125.9z" p-id="1392"></path><path d="M673.1 608.3H544.4V512h128.7c18 0 32.4-14.4 32.4-32.4s-14.4-32.4-32.4-32.4h-83.7l104.4-104.4c12.6-12.6 12.6-32.4 0-45s-32.4-12.6-45 0L512 434.6 375.2 298.7c-12.6-12.6-32.4-12.6-45 0s-12.6 32.4 0 45l104.4 104.4h-83.7c-18 0-32.4 14.4-32.4 32.4s14.4 32.4 32.4 32.4h128.7v96.3H350.9c-18 0-32.4 14.4-32.4 32.4s14.4 32.4 32.4 32.4h128.7v96.3c0 18 14.4 32.4 32.4 32.4s32.4-14.4 32.4-32.4V673.1h128.7c18 0 32.4-14.4 32.4-32.4s-15.3-32.4-32.4-32.4z" p-id="1393"></path></svg>